<?xml version="1.0" encoding="iso-8859-1"?>
<!-- Generator: Adobe Illustrator 19.0.0, SVG Export Plug-In . SVG Version: 6.00 Build 0)  -->
<svg version="1.1" id="Layer_1" xmlns="http://www.w3.org/2000/svg" xmlns:xlink="http://www.w3.org/1999/xlink" x="0px" y="0px"
	 viewBox="0 0 512 512" style="enable-background:new 0 0 512 512;" xml:space="preserve">
<g>
	<g>
		<path d="M256,0C114.615,0,0,114.615,0,256s114.615,256,256,256s256-114.615,256-256S397.385,0,256,0z M227.625,324.364
			c0,16.656-13.502,30.158-30.158,30.158s-30.158-13.502-30.158-30.158V187.636c0-16.656,13.502-30.158,30.158-30.158
			s30.158,13.502,30.158,30.158V324.364z M342.48,324.364c0,16.656-13.502,30.158-30.158,30.158s-30.158-13.502-30.158-30.158
			V187.636c0-16.656,13.502-30.158,30.158-30.158s30.158,13.502,30.158,30.158V324.364z"/>
	</g>
</g>
<g>
</g>
<g>
</g>
<g>
</g>
<g>
</g>
<g>
</g>
<g>
</g>
<g>
</g>
<g>
</g>
<g>
</g>
<g>
</g>
<g>
</g>
<g>
</g>
<g>
</g>
<g>
</g>
<g>
</g>
</svg>
